<svg width="24" height="24" viewBox="0 0 24 24" fill="none" xmlns="http://www.w3.org/2000/svg">
<mask id="mask_obj" style="mask-type:alpha" maskUnits="userSpaceOnUse" x="0" y="0" width="24" height="24">
<rect width="24" height="24" fill="#D9D9D9"/>
</mask>
<g mask="url(#mask_obj)">
<path d="M4 20C3.45 20 2.97917 19.8042 2.5875 19.4125C2.19583 19.0208 2 18.55 2 18V6C2 5.45 2.19583 4.97917 2.5875 4.5875C2.97917 4.19583 3.45 4 4 4H20C20.55 4 21.0208 4.19583 21.4125 4.5875C21.8042 4.97917 22 5.45 22 6V18C22 18.55 21.8042 19.0208 21.4125 19.4125C21.0208 19.8042 20.55 20 20 20H4ZM4 18H20V6H4V18Z" fill="white"/>
<path d="M15.1133 9.98708V8.73608H18.5333V12.9751C18.5333 13.7131 18.3353 14.2441 17.9483 14.5681C17.5523 14.8921 17.0483 15.0451 16.4273 15.0451C15.5633 15.0451 14.9243 14.7661 14.5283 14.2081L15.4103 13.2811C15.7163 13.6231 16.0313 13.7851 16.3463 13.7851C16.5623 13.7851 16.7513 13.7221 16.9133 13.5961C17.0753 13.4701 17.1653 13.2451 17.1653 12.9121V9.98708H15.1133Z" fill="white"/>
<path d="M14.3143 13.0651C14.3143 13.6321 14.1253 14.1001 13.7653 14.4601C13.3963 14.8201 12.9283 15.0001 12.3613 15.0001H9.9043V8.73608H12.1093C12.7663 8.73608 13.2793 8.88908 13.6393 9.19508C13.9993 9.50108 14.1793 9.92408 14.1793 10.4461C14.1793 10.6801 14.1163 10.9141 13.9903 11.1391C13.8643 11.3641 13.6753 11.5351 13.4143 11.6611V11.6971C13.6843 11.7961 13.9003 11.9851 14.0623 12.2551C14.2243 12.5251 14.3143 12.7951 14.3143 13.0651ZM12.7123 10.5451C12.7123 10.3831 12.6403 10.2481 12.5143 10.1401C12.3883 10.0321 12.2173 9.97808 12.0103 9.97808H11.2903V11.1571H12.0103C12.2353 11.1571 12.4063 11.1031 12.5323 10.9861C12.6493 10.8781 12.7123 10.7251 12.7123 10.5451ZM12.8923 13.0021C12.8923 12.8131 12.8203 12.6511 12.6853 12.5071C12.5413 12.3721 12.3343 12.3001 12.0643 12.3001H11.2903V13.7581H12.0643C12.3343 13.7581 12.5323 13.6861 12.6763 13.5331C12.8203 13.3891 12.8923 13.2091 12.8923 13.0021Z" fill="white"/>
<path d="M7.21498 8.69092C7.95298 8.69092 8.51998 8.90692 8.89798 9.32992C9.27598 9.76192 9.46498 10.3289 9.46498 11.0399V12.8129C9.46498 13.4879 9.27598 14.0279 8.89798 14.4419C8.51998 14.8559 7.95298 15.0539 7.21498 15.0539C5.73898 15.0539 5.00098 14.3069 5.00098 12.8129V11.0399C5.00098 9.47392 5.73898 8.69092 7.21498 8.69092ZM7.20598 9.96892C6.66598 9.96892 6.39598 10.3289 6.39598 11.0489V12.7049C6.39598 13.0289 6.44998 13.2899 6.56698 13.4879C6.67498 13.6859 6.89098 13.7759 7.20598 13.7759C7.76398 13.7759 8.05198 13.4249 8.05198 12.7049V11.0489C8.05198 10.3289 7.76398 9.96892 7.20598 9.96892Z" fill="white"/>
</g>
</svg>
