<svg width="24" height="24" viewBox="0 0 24 24" fill="none" xmlns="http://www.w3.org/2000/svg">
<mask id="mask_svg" style="mask-type:alpha" maskUnits="userSpaceOnUse" x="0" y="0" width="24" height="24">
<rect width="24" height="24" fill="#D9D9D9"/>
</mask>
<g mask="url(#mask_svg)">
<path d="M4 20C3.45 20 2.97917 19.8042 2.5875 19.4125C2.19583 19.0208 2 18.55 2 18V6C2 5.45 2.19583 4.97917 2.5875 4.5875C2.97917 4.19583 3.45 4 4 4H20C20.55 4 21.0208 4.19583 21.4125 4.5875C21.8042 4.97917 22 5.45 22 6V18C22 18.55 21.8042 19.0208 21.4125 19.4125C21.0208 19.8042 20.55 20 20 20H4ZM4 18H20V6H4V18Z" fill="white"/>
<path d="M16.7692 8.69092C17.3272 8.69092 17.7952 8.83492 18.1552 9.12292C18.5152 9.41092 18.7852 9.79792 18.9562 10.2839L17.6422 10.7519C17.5882 10.5269 17.4802 10.3469 17.3362 10.2029C17.1832 10.0589 16.9942 9.98692 16.7602 9.98692C16.4542 9.98692 16.2292 10.0859 16.0942 10.2749C15.9502 10.4729 15.8872 10.7159 15.8872 11.0039V12.7049C15.8872 13.0109 15.9502 13.2719 16.0942 13.4699C16.2292 13.6679 16.4542 13.7669 16.7692 13.7669C17.0482 13.7669 17.2732 13.6769 17.4532 13.4969C17.6332 13.3169 17.7232 13.0559 17.7232 12.7139V12.6689H16.8412V11.5169H19.0912V12.7049C19.0912 13.4159 18.8752 13.9829 18.4522 14.4149C18.0292 14.8469 17.4712 15.0539 16.7692 15.0539C15.9952 15.0539 15.4192 14.8289 15.0502 14.3789C14.6722 13.9289 14.4922 13.3439 14.4922 12.6059V11.1299C14.4922 10.4459 14.6812 9.86092 15.0592 9.39292C15.4372 8.92492 16.0042 8.69092 16.7692 8.69092Z" fill="white"/>
<path d="M14.4037 8.73608L12.7117 15.0001H11.2987L9.59766 8.73608H11.0197L12.0007 12.8671H12.0457L12.9907 8.73608H14.4037Z" fill="white"/>
<path d="M9.23952 9.24906L8.65452 10.3561C8.24952 10.0681 7.79052 9.92406 7.28652 9.92406C6.99852 9.92406 6.78252 9.97806 6.65652 10.0861C6.53052 10.1941 6.46752 10.3111 6.46752 10.4551C6.46752 10.6531 6.53952 10.8151 6.68352 10.9321C6.82752 11.0491 7.12452 11.1481 7.57452 11.2291C7.84452 11.2831 8.08752 11.3461 8.28552 11.4181C8.48352 11.4901 8.69052 11.5891 8.88852 11.7241C9.08652 11.8591 9.24852 12.0391 9.35652 12.2641C9.46452 12.4891 9.51852 12.7591 9.51852 13.0651C9.51852 13.6951 9.29352 14.1811 8.84352 14.5321C8.39352 14.8831 7.84452 15.0541 7.19652 15.0541C6.18852 15.0541 5.39652 14.7661 4.81152 14.1901L5.53152 13.1281C5.99952 13.5781 6.55752 13.7941 7.21452 13.7941C7.49352 13.7941 7.71852 13.7401 7.88952 13.6141C8.05152 13.4881 8.14152 13.3351 8.14152 13.1551C8.14152 12.9751 8.08752 12.8221 7.97952 12.6961C7.87152 12.5701 7.65552 12.4711 7.34052 12.3991C7.12452 12.3541 6.97152 12.3181 6.88152 12.3001C6.79152 12.2821 6.65652 12.2461 6.45852 12.1921C6.26052 12.1381 6.11652 12.0841 6.02652 12.0301C5.93652 11.9761 5.81952 11.9041 5.67552 11.8051C5.53152 11.7151 5.43252 11.6071 5.36952 11.4991C5.29752 11.3911 5.24352 11.2471 5.18952 11.0851C5.13552 10.9231 5.11752 10.7521 5.11752 10.5541C5.11752 9.94206 5.32452 9.47406 5.73852 9.15006C6.15252 8.82606 6.62952 8.66406 7.17852 8.66406C8.00652 8.66406 8.69952 8.86206 9.23952 9.24906Z" fill="white"/>
</g>
</svg>
