<svg width="24" height="24" viewBox="0 0 24 24" fill="none" xmlns="http://www.w3.org/2000/svg">
<mask id="mask_png" style="mask-type:alpha" maskUnits="userSpaceOnUse" x="0" y="0" width="24" height="24">
<rect width="24" height="24" fill="#D9D9D9"/>
</mask>
<g mask="url(#mask_png)">
<path d="M4 20C3.45 20 2.97917 19.8042 2.5875 19.4125C2.19583 19.0208 2 18.55 2 18V6C2 5.45 2.19583 4.97917 2.5875 4.5875C2.97917 4.19583 3.45 4 4 4H20C20.55 4 21.0208 4.19583 21.4125 4.5875C21.8042 4.97917 22 5.45 22 6V18C22 18.55 21.8042 19.0208 21.4125 19.4125C21.0208 19.8042 20.55 20 20 20H4ZM4 18H20V6H4V18Z" fill="white"/>
<path d="M16.7692 8.69092C17.3272 8.69092 17.7952 8.83492 18.1552 9.12292C18.5152 9.41092 18.7852 9.79792 18.9562 10.2839L17.6422 10.7519C17.5882 10.5269 17.4802 10.3469 17.3362 10.2029C17.1832 10.0589 16.9942 9.98692 16.7602 9.98692C16.4542 9.98692 16.2292 10.0859 16.0942 10.2749C15.9502 10.4729 15.8872 10.7159 15.8872 11.0039V12.7049C15.8872 13.0109 15.9502 13.2719 16.0942 13.4699C16.2292 13.6679 16.4542 13.7669 16.7692 13.7669C17.0482 13.7669 17.2732 13.6769 17.4532 13.4969C17.6332 13.3169 17.7232 13.0559 17.7232 12.7139V12.6689H16.8412V11.5169H19.0912V12.7049C19.0912 13.4159 18.8752 13.9829 18.4522 14.4149C18.0292 14.8469 17.4712 15.0539 16.7692 15.0539C15.9952 15.0539 15.4192 14.8289 15.0502 14.3789C14.6722 13.9289 14.4922 13.3439 14.4922 12.6059V11.1299C14.4922 10.4459 14.6812 9.86092 15.0592 9.39292C15.4372 8.92492 16.0042 8.69092 16.7692 8.69092Z" fill="white"/>
<path d="M14.0977 15.0001H12.7747L11.3347 11.7511L11.3167 11.7601V15.0001H9.93066V8.73608H11.2537L12.6937 11.9041L12.7117 11.8951V8.73608H14.0977V15.0001Z" fill="white"/>
<path d="M9.63524 10.7521C9.63524 11.3281 9.42824 11.7961 9.03224 12.1651C8.63624 12.5341 8.11424 12.7141 7.46624 12.7141H6.58424V15.0001H5.19824V8.73608H7.43924C8.12324 8.73608 8.66324 8.91608 9.05024 9.27608C9.43724 9.63608 9.63524 10.1311 9.63524 10.7521ZM8.23124 10.7251C8.23124 10.4821 8.15024 10.2931 8.00624 10.1671C7.85324 10.0411 7.65524 9.97808 7.41224 9.97808H6.58424V11.4721H7.44824C7.68224 11.4721 7.87124 11.4091 8.01524 11.2741C8.15924 11.1391 8.23124 10.9591 8.23124 10.7251Z" fill="white"/>
</g>
</svg>
