<svg width="10" height="16" viewBox="0 0 10 16" fill="none" xmlns="http://www.w3.org/2000/svg">
<path d="M2.5 0.5H7.5C8.60457 0.5 9.5 1.39543 9.5 2.5V11C9.5 13.4853 7.48528 15.5 5 15.5C2.51472 15.5 0.5 13.4853 0.5 11V2.5C0.5 1.39543 1.39543 0.5 2.5 0.5Z" fill="black"/>
<path d="M2.5 0.5H7.5C8.60457 0.5 9.5 1.39543 9.5 2.5V11C9.5 13.4853 7.48528 15.5 5 15.5C2.51472 15.5 0.5 13.4853 0.5 11V2.5C0.5 1.39543 1.39543 0.5 2.5 0.5Z" stroke="white"/>
<mask id="mask_shading_slider_thumb" style="mask-type:alpha" maskUnits="userSpaceOnUse" x="-2" y="1" width="14" height="14">
<rect x="-1.25" y="1.75" width="12.5" height="12.5" fill="#D9D9D9" stroke="black" stroke-width="0.5"/>
</mask>
<g mask="url(#mask_shading_slider_thumb)">
<path d="M3.5 6.75C3.84183 6.75 4.14047 6.87484 4.38281 7.11719C4.62516 7.35953 4.75 7.65817 4.75 8C4.75 8.34183 4.62516 8.64047 4.38281 8.88281C4.14047 9.12516 3.84183 9.25 3.5 9.25C3.15817 9.25 2.85953 9.12516 2.61719 8.88281C2.37484 8.64047 2.25 8.34183 2.25 8C2.25 7.65817 2.37484 7.35953 2.61719 7.11719C2.85953 6.87484 3.15817 6.75 3.5 6.75ZM6.5 6.75C6.84183 6.75 7.14047 6.87484 7.38281 7.11719C7.62516 7.35953 7.75 7.65817 7.75 8C7.75 8.34183 7.62516 8.64047 7.38281 8.88281C7.14047 9.12516 6.84183 9.25 6.5 9.25C6.15817 9.25 5.85953 9.12516 5.61719 8.88281C5.37484 8.64047 5.25 8.34183 5.25 8C5.25 7.65817 5.37484 7.35953 5.61719 7.11719C5.85953 6.87484 6.15817 6.75 6.5 6.75ZM3.5 3.75C3.84183 3.75 4.14047 3.87484 4.38281 4.11719C4.62516 4.35953 4.75 4.65817 4.75 5C4.75 5.34183 4.62516 5.64047 4.38281 5.88281C4.14047 6.12516 3.84183 6.25 3.5 6.25C3.15817 6.25 2.85953 6.12516 2.61719 5.88281C2.37484 5.64047 2.25 5.34183 2.25 5C2.25 4.65817 2.37484 4.35953 2.61719 4.11719C2.85953 3.87484 3.15817 3.75 3.5 3.75ZM6.5 3.75C6.84183 3.75 7.14047 3.87484 7.38281 4.11719C7.62516 4.35953 7.75 4.65817 7.75 5C7.75 5.34183 7.62516 5.64047 7.38281 5.88281C7.14047 6.12516 6.84183 6.25 6.5 6.25C6.15817 6.25 5.85953 6.12516 5.61719 5.88281C5.37484 5.64047 5.25 5.34183 5.25 5C5.25 4.65817 5.37484 4.35953 5.61719 4.11719C5.85953 3.87484 6.15817 3.75 6.5 3.75Z" fill="white" stroke="black" stroke-width="0.5"/>
</g>
</svg>
